<svg width="48" height="48" viewBox="0 0 48 48" fill="none" xmlns="http://www.w3.org/2000/svg">
<g id="Content" clip-path="url(#clip0_69620_720)">
<path id="Vector" d="M47.6281 20.2678C47.4858 20.2659 47.3435 20.2622 47.2012 20.2546C47.1139 20.2527 47.0266 20.2489 46.9412 20.2432C46.5542 20.2242 46.169 20.1938 45.7857 20.1521C45.6169 20.135 45.448 20.1142 45.281 20.0914H45.2791C45.1103 20.0705 44.9433 20.044 44.7782 20.0174C44.4727 19.9681 44.1673 19.913 43.8656 19.8504C37.2968 18.5071 31.9216 14.0198 29.3563 8.00885C28.3545 5.66369 27.7815 3.08704 27.7321 0.371887L27.7245 0H20.2678L20.2735 0.385169C20.3646 6.97099 22.7591 13.2058 27.0586 18.1504C27.0775 18.1712 27.0946 18.1921 27.1136 18.213C27.2692 18.3913 27.4285 18.5697 27.5898 18.7442C27.6183 18.7746 27.6467 18.8069 27.6752 18.8372C27.8574 19.0327 28.0395 19.2262 28.2273 19.4178C28.3488 19.5411 28.4702 19.6645 28.5935 19.784C28.7169 19.9054 28.8421 20.025 28.9673 20.1445C29.0926 20.2641 29.2197 20.3817 29.3468 20.4974C29.5176 20.6511 29.6883 20.8048 29.8629 20.9547C29.8743 20.9661 29.8857 20.9756 29.8989 20.9851C30.0716 21.135 30.2443 21.281 30.4207 21.4253C31.5174 22.3284 32.6843 23.1481 33.91 23.8729C37.293 25.8784 41.0764 27.1345 44.9774 27.5633C45.0059 27.5671 45.0363 27.5709 45.0647 27.5728C45.1596 27.5842 45.2545 27.5936 45.3493 27.6012C45.503 27.6164 45.6567 27.6316 45.8104 27.643C45.9489 27.6544 46.0893 27.6638 46.2297 27.6733C46.4972 27.6904 46.7648 27.7037 47.0342 27.7113C47.1139 27.7151 47.1955 27.717 47.2752 27.7189C47.3871 27.7227 47.501 27.7246 47.6148 27.7265L48 27.7322V20.2754L47.6281 20.2678Z" fill="#377BDC"/>
<path id="Vector_2" d="M48 20.2678V27.7245L47.6281 27.7321C36.6707 27.9295 27.9314 36.6688 27.7321 47.6281L27.7245 48H20.2678L20.2735 47.6148C20.3741 40.3687 23.26 33.5457 28.4019 28.4019C33.5457 23.26 40.3687 20.3741 47.6148 20.2735L48 20.2678Z" fill="#184686"/>
<path id="Vector_3" d="M27.7322 48H20.2754L20.2678 47.6281C20.0686 36.6688 11.3293 27.9295 0.371887 27.7321L0 27.7245V20.2678L0.385169 20.2735C7.63127 20.3741 14.4543 23.26 19.5981 28.4019C24.74 33.5457 27.6278 40.3687 27.7265 47.6148L27.7322 48Z" fill="#377BDC"/>
<path id="Vector_4" d="M20.2754 0L20.2678 0.371887C20.0686 11.3293 11.3293 20.0686 0.371887 20.2678L0 20.2754V27.7322L0.385169 27.7265C7.63127 27.6278 14.4543 24.74 19.5981 19.5981C24.74 14.4543 27.6278 7.63127 27.7265 0.385169L27.7322 0L20.2754 0ZM26.9675 0.379477V0.373784L27.347 0.379477H26.9675Z" fill="#184686"/>
<path id="Vector_5" d="M29.7776 8.87596L29.6979 9.04103C29.381 9.68994 28.8213 10.1453 28.2805 10.5836C27.5842 11.149 26.867 11.7334 26.5824 12.7713C26.4211 13.4221 25.7418 13.7219 25.0834 14.0122C24.9279 14.0805 24.7685 14.1507 24.6167 14.2266L24.3017 14.3841L24.1215 14.0805C21.6719 9.93849 20.34 5.20452 20.2736 0.385169L20.2698 0H27.7265L27.7322 0.373784C27.7853 3.28627 28.4475 6.0906 29.6998 8.71089L29.7776 8.87596Z" fill="#377BDC"/>
</g>
<defs>
<clipPath id="clip0_69620_720">
<rect width="48" height="48" fill="white"/>
</clipPath>
</defs>
</svg>
