<svg width="32" height="32" viewBox="0 0 32 32" fill="none" xmlns="http://www.w3.org/2000/svg">
<g id="Logomark">
<path id="Vector" d="M12.8 0C12.8 7.06924 7.06924 12.8 0 12.8C3.92556 12.8 7.57596 13.9781 10.6169 16C15.7904 12.5603 19.2 6.67831 19.2 0H12.8Z" fill="#377BDC"/>
<path id="Vector_2" opacity="0.8" d="M32 12.8C24.9308 12.8 19.2 7.06924 19.2 0C19.2 3.92556 18.0219 7.57596 16 10.6169C19.4397 15.7904 25.3217 19.2 32 19.2V12.8Z" fill="#377BDC"/>
<path id="Vector_3" opacity="0.6" d="M19.2 32C19.2 24.9308 24.9307 19.2 32 19.2C28.0744 19.2 24.424 18.0219 21.383 16C16.2096 19.4397 12.8 25.3217 12.8 32H19.2Z" fill="#377BDC"/>
<path id="Vector_4" opacity="0.4" d="M2.79749e-07 19.2C7.06924 19.2 12.8 24.9308 12.8 32C12.8 28.0745 13.9781 24.4241 16 21.3831C12.5603 16.2097 6.67831 12.8 0 12.8L2.79749e-07 19.2Z" fill="#377BDC"/>
</g>
</svg>
