<svg width="88" height="32" viewBox="0 0 88 32" fill="none" xmlns="http://www.w3.org/2000/svg">
<g id="Logotype">
<g id="Steach">
<path d="M2.65337 19.8554C2.74647 20.9726 3.25852 21.8384 4.18953 22.4529C5.13915 23.0673 6.40532 23.3839 7.98803 23.4025C9.75694 23.4025 11.1255 23.0953 12.0938 22.4808C13.0806 21.8663 13.5741 20.9633 13.5741 19.7716C13.5741 19.1943 13.3786 18.7382 12.9875 18.403C12.6151 18.0678 12.1124 17.7978 11.4793 17.593C10.8648 17.3696 10.1573 17.202 9.35661 17.0903C8.57457 16.9599 7.76459 16.8296 6.92668 16.6993C6.1074 16.5503 5.29742 16.3827 4.49676 16.1965C3.71471 15.9917 3.00715 15.7124 2.37407 15.3586C1.7596 15.0048 1.25686 14.5486 0.865836 13.99C0.493433 13.4128 0.307232 12.6959 0.307232 11.8394C0.307232 10.8525 0.502743 9.99601 0.893766 9.26982C1.30341 8.52502 1.86201 7.91056 2.56958 7.42643C3.27714 6.94231 4.10574 6.57922 5.05536 6.33716C6.00499 6.0951 7.01979 5.98338 8.09975 6.00199C9.10524 6.02061 10.0362 6.14165 10.8928 6.36509C11.7679 6.58853 12.5313 6.92369 13.183 7.37057C13.8534 7.79884 14.3934 8.33882 14.803 8.99052C15.2126 9.64223 15.4547 10.4057 15.5292 11.2808L12.9037 11.6439C12.8106 10.6756 12.3917 9.92153 11.6469 9.38155C10.9021 8.84156 9.7197 8.57157 8.09975 8.57157C6.49842 8.57157 5.25087 8.86018 4.35711 9.43741C3.48196 9.99601 3.04439 10.7967 3.04439 11.8394C3.04439 12.3608 3.23059 12.7704 3.60299 13.0683C3.99402 13.3476 4.49676 13.5804 5.11122 13.7666C5.74431 13.9342 6.45187 14.0738 7.23392 14.1855C8.03458 14.2973 8.84456 14.4183 9.66384 14.5486C10.5017 14.679 11.3117 14.8465 12.0938 15.0514C12.8944 15.2562 13.602 15.5541 14.2165 15.9451C14.8495 16.3175 15.3523 16.8017 15.7247 17.3975C16.1157 17.9934 16.3112 18.7568 16.3112 19.6878C16.3112 20.3581 16.1902 21.0657 15.9481 21.8105C15.7247 22.5367 15.2964 23.2163 14.6633 23.8494C14.0489 24.4638 13.2017 24.9759 12.1217 25.3855C11.0604 25.7766 9.69177 25.9721 8.01596 25.9721C6.47049 25.9721 5.19501 25.8045 4.18953 25.4693C3.18404 25.1342 2.37407 24.6966 1.7596 24.1566C1.16376 23.598 0.735495 22.9742 0.474813 22.2853C0.214131 21.5963 0.0558604 20.8981 0 20.1905L2.65337 19.8554Z" fill="#101828"/>
<path d="M16.1788 14.3252V11.7556H16.7094C17.026 11.7556 17.3518 11.6253 17.687 11.3646C18.0408 11.1039 18.3573 10.7687 18.6366 10.3591C18.9159 9.94946 19.1487 9.49327 19.3349 8.99052C19.5211 8.48778 19.6142 7.99435 19.6142 7.51022L22.3793 7.48229C22.342 8.26434 22.1558 9.00914 21.8207 9.71671C21.4855 10.4057 20.9921 10.9643 20.3404 11.3925C20.0983 11.5415 19.8004 11.6532 19.4466 11.7277C19.1114 11.7835 18.8042 11.8394 18.5249 11.8953V11.9511C18.8042 11.8953 19.1114 11.8487 19.4466 11.8115C19.8004 11.7742 20.1169 11.7556 20.3962 11.7556H25.3399V14.3252H21.7927V21.7546C21.7927 22.3691 21.9417 22.7787 22.2396 22.9835C22.5375 23.1697 22.9006 23.2628 23.3289 23.2628H26.0102V25.8324H23.4686C22.5562 25.8324 21.8114 25.7486 21.2341 25.581C20.6569 25.3948 20.21 25.1155 19.8935 24.7431C19.5769 24.3707 19.3535 23.8959 19.2232 23.3187C19.1114 22.7229 19.0556 22.0246 19.0556 21.2239V14.3252H16.1788Z" fill="#101828"/>
<path d="M33.2092 26C32.1851 26 31.2075 25.8603 30.2765 25.581C29.3455 25.2831 28.5262 24.8362 27.8187 24.2404C27.1297 23.6446 26.5804 22.8997 26.1708 22.006C25.7612 21.1122 25.5563 20.0602 25.5563 18.8499C25.5563 17.6396 25.7612 16.5875 26.1708 15.6938C26.5804 14.8 27.1297 14.0552 27.8187 13.4594C28.5262 12.8635 29.3455 12.4259 30.2765 12.1466C31.2075 11.8487 32.1851 11.6997 33.2092 11.6997C34.2333 11.6997 35.1922 11.8487 36.086 12.1466C36.9984 12.4446 37.7898 12.8914 38.4601 13.4873C39.1304 14.0645 39.6611 14.8 40.0521 15.6938C40.4431 16.5875 40.6386 17.6396 40.6386 18.8499C40.6386 19.0547 40.6386 19.1943 40.6386 19.2688C40.6386 19.3247 40.62 19.4457 40.5828 19.6319H28.4052C28.61 21.0284 29.15 22.0712 30.0252 22.7601C30.9003 23.449 31.9803 23.7842 33.2651 23.7656C34.345 23.747 35.2853 23.5421 36.086 23.1511C36.9053 22.7601 37.5105 22.0432 37.9015 21.0005L40.4152 21.3357C40.1545 22.1736 39.7821 22.8904 39.298 23.4863C38.8325 24.0821 38.2832 24.5662 37.6501 24.9387C37.017 25.2924 36.3188 25.5624 35.5553 25.7486C34.8105 25.9162 34.0285 26 33.2092 26ZM33.2651 13.8504C32.6506 13.8504 32.0361 13.9714 31.4217 14.2135C30.8072 14.4369 30.2672 14.7907 29.8017 15.2748C29.3362 15.7403 28.9638 16.3362 28.6845 17.0623C28.4238 17.7885 28.3307 18.6451 28.4052 19.6319C28.5169 19.2595 28.638 18.9616 28.7683 18.7382C28.9173 18.5147 29.0848 18.3471 29.271 18.2354C29.4759 18.1237 29.6993 18.0492 29.9414 18.012C30.2021 17.9747 30.5 17.9561 30.8351 17.9561H38.0411C37.8363 16.5224 37.3056 15.4889 36.4491 14.8559C35.6112 14.2042 34.5499 13.869 33.2651 13.8504Z" fill="#101828"/>
<path d="M52.6157 22.397C52.4295 22.9742 52.1409 23.477 51.7498 23.9052C51.3588 24.3335 50.9026 24.6873 50.3812 24.9666C49.8785 25.2459 49.3292 25.46 48.7334 25.609C48.1375 25.7393 47.5417 25.8045 46.9458 25.8045C46.2569 25.8045 45.5866 25.7207 44.9349 25.5531C44.2832 25.3855 43.7059 25.1342 43.2032 24.799C42.7004 24.4638 42.2908 24.0542 41.9743 23.5701C41.6763 23.0673 41.5274 22.4994 41.5274 21.8663C41.5274 20.8422 41.7974 20.0695 42.3374 19.5481C42.896 19.0081 43.5849 18.6171 44.4042 18.3751C45.2421 18.133 46.1359 18.0027 47.0855 17.984C48.0537 17.9468 48.9475 17.9189 49.7668 17.9002C50.6047 17.863 51.2936 17.7885 51.8336 17.6768C52.3736 17.5651 52.6343 17.3137 52.6157 16.9227C52.5784 15.8613 52.2153 15.1072 51.5264 14.6603C50.8561 14.2135 49.8506 13.99 48.5099 13.99C47.9699 13.99 47.4579 14.0273 46.9738 14.1017C46.5083 14.1762 46.0893 14.3159 45.7169 14.5207C45.3631 14.7255 45.0652 15.0048 44.8231 15.3586C44.5811 15.7124 44.4228 16.1686 44.3483 16.7272L41.9463 16.392C42.0394 15.5541 42.2908 14.8372 42.7004 14.2414C43.1101 13.6456 43.6221 13.1707 44.2366 12.817C44.8511 12.4446 45.5307 12.1839 46.2755 12.0349C47.0203 11.8673 47.7651 11.7835 48.5099 11.7835C49.3478 11.7835 50.1671 11.8766 50.9678 12.0628C51.7871 12.249 52.5132 12.5563 53.1463 12.9845C53.7794 13.3942 54.2822 13.9528 54.6546 14.6603C55.0456 15.3493 55.2411 16.2151 55.2411 17.2579V22.3411C55.2411 22.7135 55.3063 22.9556 55.4366 23.0673C55.5669 23.1791 55.7811 23.2349 56.079 23.2349H56.7214V25.8324H54.9339C54.2263 25.8324 53.6584 25.6183 53.2301 25.19C52.8205 24.7618 52.6157 24.2404 52.6157 23.6259V22.397ZM44.2087 21.8105C44.2087 22.1829 44.3018 22.5087 44.488 22.788C44.6742 23.0487 44.9162 23.2722 45.2142 23.4584C45.5307 23.6259 45.8938 23.7563 46.3034 23.8494C46.7317 23.9239 47.1693 23.9611 47.6162 23.9611C48.1934 23.9611 48.7799 23.8959 49.3758 23.7656C49.9716 23.6166 50.5023 23.4118 50.9678 23.1511C51.4519 22.8904 51.8429 22.5739 52.1408 22.2015C52.4574 21.8105 52.6157 21.3729 52.6157 20.8888V19.0454C52.2246 19.2688 51.7405 19.4178 51.1633 19.4923C50.5861 19.5667 49.9809 19.6133 49.3478 19.6319C48.7334 19.6505 48.1189 19.6692 47.5044 19.6878C46.89 19.7064 46.3407 19.7809 45.8566 19.9112C45.3724 20.0416 44.9721 20.2557 44.6556 20.5536C44.3576 20.8329 44.2087 21.2519 44.2087 21.8105Z" fill="#101828"/>
<path d="M65.1221 11.6997C65.9227 11.6997 66.7048 11.8022 67.4682 12.007C68.2316 12.2118 68.9299 12.519 69.563 12.9287C70.196 13.3383 70.7453 13.8504 71.2108 14.4648C71.6763 15.0793 72.0022 15.7962 72.1884 16.6155L69.6747 17.0065C68.9857 15.0328 67.4682 14.0273 65.1221 13.99C64.4517 13.99 63.8186 14.0924 63.2228 14.2973C62.627 14.5021 62.1056 14.8186 61.6587 15.2469C61.2304 15.6565 60.886 16.1686 60.6253 16.783C60.3646 17.3789 60.2343 18.0678 60.2343 18.8499C60.2343 19.6319 60.3553 20.3302 60.5974 20.9446C60.858 21.5591 61.2025 22.0712 61.6308 22.4808C62.0777 22.8904 62.599 23.1977 63.1949 23.4025C63.7907 23.6073 64.4331 23.7004 65.1221 23.6818C66.2765 23.6632 67.2261 23.4211 67.9709 22.9556C68.7157 22.4901 69.2743 21.7546 69.6467 20.7491L72.1884 21.1122C72.0022 21.9315 71.6763 22.6484 71.2108 23.2628C70.7453 23.8773 70.196 24.3894 69.563 24.799C68.9299 25.19 68.2316 25.4879 67.4682 25.6928C66.7048 25.8976 65.9227 26 65.1221 26C64.0979 26 63.1204 25.8603 62.1894 25.581C61.277 25.2831 60.467 24.8362 59.7595 24.2404C59.0705 23.6446 58.5212 22.8997 58.1116 22.006C57.7019 21.1122 57.4971 20.0602 57.4971 18.8499C57.4971 17.6396 57.7019 16.5875 58.1116 15.6938C58.5212 14.8 59.0705 14.0552 59.7595 13.4594C60.467 12.8635 61.277 12.4259 62.1894 12.1466C63.1204 11.8487 64.0979 11.6997 65.1221 11.6997Z" fill="#101828"/>
<path d="M73.1188 6.2813H75.856V14.2973C75.856 14.6138 75.828 14.9583 75.7722 15.3307C75.7163 15.7031 75.6418 16.0475 75.5487 16.3641L75.6046 16.392C75.6977 16.0755 75.8001 15.7403 75.9118 15.3865C76.0236 15.0141 76.1725 14.6976 76.3587 14.4369C76.9918 13.45 77.7925 12.7425 78.7607 12.3142C79.7476 11.8673 80.7717 11.6439 81.833 11.6439C82.764 11.6439 83.5647 11.8301 84.235 12.2025C84.924 12.5749 85.4919 13.0776 85.9388 13.7107C86.4043 14.3252 86.7487 15.0514 86.9722 15.8893C87.1956 16.7086 87.3073 17.5744 87.3073 18.4868V25.8324H84.5702V18.4868C84.5702 17.1834 84.263 16.1406 83.6485 15.3586C83.0527 14.5579 82.1682 14.1576 80.9951 14.1576C80.6227 14.1576 80.1479 14.2507 79.5707 14.4369C78.9935 14.6045 78.4256 14.9303 77.8669 15.4145C77.327 15.88 76.8521 16.5317 76.4425 17.3696C76.0515 18.2075 75.856 19.2874 75.856 20.6095V25.8324H73.1188V6.2813Z" fill="#101828"/>
</g>
</g>
</svg>
