<svg width="484" height="117" viewBox="0 0 484 117" fill="none" xmlns="http://www.w3.org/2000/svg">
<g filter="url(#filter0_d_184_2601)">
<path d="M91 66C84.4339 66 77.9321 64.7067 71.8658 62.194C65.7996 59.6812 60.2876 55.9983 55.6447 51.3553C51.0017 46.7124 47.3188 41.2005 44.806 35.1342C42.2933 29.0679 41 22.5661 41 16L56 16C56 20.5963 56.9053 25.1475 58.6642 29.3939C60.4231 33.6403 63.0012 37.4987 66.2513 40.7487C69.5013 43.9988 73.3597 46.5769 77.6061 48.3358C81.8525 50.0947 86.4037 51 91 51L91 66Z" fill="#848484"/>
</g>
<path d="M6 51C12.5661 51 19.0679 52.2933 25.1342 54.806C31.2004 57.3188 36.7124 61.0017 41.3553 65.6447C45.9983 70.2876 49.6812 75.7995 52.194 81.8658C54.7067 87.9321 56 94.4339 56 101H41C41 96.4037 40.0947 91.8525 38.3358 87.6061C36.5769 83.3597 33.9988 79.5013 30.7487 76.2513C27.4987 73.0012 23.6403 70.4231 19.3939 68.6642C15.1475 66.9053 10.5963 66 6 66L6 51Z" fill="#848484"/>
<g filter="url(#filter1_d_184_2601)">
<path d="M6 66C12.5661 66 19.0679 64.7067 25.1342 62.194C31.2004 59.6812 36.7124 55.9983 41.3553 51.3553C45.9983 46.7124 49.6812 41.2005 52.194 35.1342C54.7067 29.0679 56 22.5661 56 16L41 16C41 20.5963 40.0947 25.1475 38.3358 29.3939C36.5769 33.6403 33.9988 37.4987 30.7487 40.7487C27.4987 43.9988 23.6403 46.5769 19.3939 48.3358C15.1475 50.0947 10.5963 51 6 51L6 66Z" fill="#393939"/>
</g>
<g filter="url(#filter2_d_184_2601)">
<path d="M91 51C84.4339 51 77.9321 52.2933 71.8658 54.806C65.7996 57.3188 60.2876 61.0017 55.6447 65.6447C51.0017 70.2876 47.3188 75.7995 44.806 81.8658C42.2933 87.9321 41 94.4339 41 101H56C56 96.4037 56.9053 91.8525 58.6642 87.6061C60.4231 83.3597 63.0012 79.5013 66.2513 76.2513C69.5013 73.0012 73.3597 70.4231 77.6061 68.6642C81.8525 66.9053 86.4037 66 91 66L91 51Z" fill="#393939"/>
</g>
<path d="M133.944 74.4017C134.328 79.0097 136.44 82.5809 140.28 85.1153C144.197 87.6497 149.419 88.9553 155.947 89.0321C163.243 89.0321 168.888 87.7649 172.882 85.2305C176.952 82.6961 178.987 78.9713 178.987 74.0561C178.987 71.6753 178.181 69.7937 176.568 68.4113C175.032 67.0289 172.958 65.9153 170.347 65.0705C167.813 64.1489 164.894 63.4577 161.592 62.9969C158.366 62.4593 155.026 61.9217 151.57 61.3841C148.19 60.7697 144.85 60.0785 141.547 59.3105C138.322 58.4657 135.403 57.3137 132.792 55.8545C130.258 54.3953 128.184 52.5137 126.571 50.2097C125.035 47.8289 124.267 44.8721 124.267 41.3393C124.267 37.2689 125.074 33.7361 126.686 30.7409C128.376 27.6689 130.68 25.1345 133.598 23.1377C136.517 21.1409 139.934 19.6433 143.851 18.6449C147.768 17.6465 151.954 17.1857 156.408 17.2625C160.555 17.3393 164.395 17.8385 167.928 18.7601C171.538 19.6817 174.686 21.0641 177.374 22.9073C180.139 24.6737 182.366 26.9009 184.056 29.5889C185.746 32.2769 186.744 35.4257 187.051 39.0353L176.222 40.5329C175.838 36.5393 174.11 33.4289 171.038 31.2017C167.966 28.9745 163.09 27.8609 156.408 27.8609C149.803 27.8609 144.658 29.0513 140.971 31.4321C137.362 33.7361 135.557 37.0385 135.557 41.3393C135.557 43.4897 136.325 45.1793 137.861 46.4081C139.474 47.5601 141.547 48.5201 144.082 49.2881C146.693 49.9793 149.611 50.5553 152.837 51.0161C156.139 51.4769 159.48 51.9761 162.859 52.5137C166.315 53.0513 169.656 53.7425 172.882 54.5873C176.184 55.4321 179.102 56.6609 181.637 58.2737C184.248 59.8097 186.322 61.8065 187.858 64.2641C189.47 66.7217 190.277 69.8705 190.277 73.7105C190.277 76.4753 189.778 79.3937 188.779 82.4657C187.858 85.4609 186.091 88.2641 183.48 90.8753C180.946 93.4097 177.451 95.5217 172.997 97.2113C168.619 98.8241 162.974 99.6305 156.062 99.6305C149.688 99.6305 144.427 98.9393 140.28 97.5569C136.133 96.1745 132.792 94.3697 130.258 92.1425C127.8 89.8385 126.034 87.2657 124.958 84.4241C123.883 81.5825 123.23 78.7025 123 75.7841L133.944 74.4017Z" fill="#393939"/>
<path d="M189.731 51.5921V40.9937H191.919C193.225 40.9937 194.569 40.4561 195.951 39.3809C197.411 38.3057 198.716 36.9233 199.868 35.2337C201.02 33.5441 201.98 31.6625 202.748 29.5889C203.516 27.5153 203.9 25.4801 203.9 23.4833L215.305 23.3681C215.151 26.5937 214.383 29.6657 213.001 32.5841C211.619 35.4257 209.583 37.7297 206.895 39.4961C205.897 40.1105 204.668 40.5713 203.209 40.8785C201.827 41.1089 200.559 41.3393 199.407 41.5697V41.8001C200.559 41.5697 201.827 41.3777 203.209 41.2241C204.668 41.0705 205.974 40.9937 207.126 40.9937H227.516V51.5921H212.886V82.2353C212.886 84.7697 213.5 86.4593 214.729 87.3041C215.958 88.0721 217.455 88.4561 219.222 88.4561H230.281V99.0545H219.798C216.035 99.0545 212.963 98.7089 210.582 98.0177C208.201 97.2497 206.358 96.0977 205.052 94.5617C203.747 93.0257 202.825 91.0673 202.287 88.6865C201.827 86.2289 201.596 83.3489 201.596 80.0465V51.5921H189.731Z" fill="#393939"/>
<path d="M259.974 99.7457C255.75 99.7457 251.718 99.1697 247.878 98.0177C244.038 96.7889 240.659 94.9457 237.74 92.4881C234.899 90.0305 232.633 86.9585 230.943 83.2721C229.254 79.5857 228.409 75.2465 228.409 70.2545C228.409 65.2625 229.254 60.9233 230.943 57.2369C232.633 53.5505 234.899 50.4785 237.74 48.0209C240.659 45.5633 244.038 43.7585 247.878 42.6065C251.718 41.3777 255.75 40.7633 259.974 40.7633C264.198 40.7633 268.153 41.3777 271.839 42.6065C275.603 43.8353 278.867 45.6785 281.631 48.1361C284.396 50.5169 286.585 53.5505 288.198 57.2369C289.811 60.9233 290.617 65.2625 290.617 70.2545C290.617 71.0993 290.617 71.6753 290.617 71.9825C290.617 72.2129 290.54 72.7121 290.387 73.4801H240.159C241.004 79.2401 243.231 83.5409 246.841 86.3825C250.451 89.2241 254.905 90.6065 260.204 90.5297C264.659 90.4529 268.537 89.6081 271.839 87.9953C275.219 86.3825 277.715 83.4257 279.327 79.1249L289.695 80.5073C288.62 83.9633 287.084 86.9201 285.087 89.3777C283.167 91.8353 280.902 93.8321 278.291 95.3681C275.679 96.8273 272.799 97.9409 269.651 98.7089C266.579 99.4001 263.353 99.7457 259.974 99.7457ZM260.204 49.6337C257.67 49.6337 255.135 50.1329 252.601 51.1313C250.067 52.0529 247.839 53.5121 245.919 55.5089C243.999 57.4289 242.463 59.8865 241.311 62.8817C240.236 65.8769 239.852 69.4097 240.159 73.4801C240.62 71.9441 241.119 70.7153 241.657 69.7937C242.271 68.8721 242.963 68.1809 243.731 67.7201C244.575 67.2593 245.497 66.9521 246.495 66.7985C247.571 66.6449 248.799 66.5681 250.182 66.5681H279.903C279.059 60.6545 276.87 56.3921 273.337 53.7809C269.881 51.0929 265.503 49.7105 260.204 49.6337Z" fill="#393939"/>
<path d="M340.017 84.8849C339.249 87.2657 338.059 89.3393 336.446 91.1057C334.833 92.8721 332.951 94.3313 330.801 95.4833C328.727 96.6353 326.462 97.5185 324.004 98.1329C321.547 98.6705 319.089 98.9393 316.631 98.9393C313.79 98.9393 311.025 98.5937 308.337 97.9025C305.649 97.2113 303.268 96.1745 301.195 94.7921C299.121 93.4097 297.431 91.7201 296.126 89.7233C294.897 87.6497 294.283 85.3073 294.283 82.6961C294.283 78.4721 295.396 75.2849 297.623 73.1345C299.927 70.9073 302.769 69.2945 306.148 68.2961C309.604 67.2977 313.291 66.7601 317.207 66.6833C321.201 66.5297 324.887 66.4145 328.267 66.3377C331.723 66.1841 334.564 65.8769 336.791 65.4161C339.019 64.9553 340.094 63.9185 340.017 62.3057C339.863 57.9281 338.366 54.8177 335.524 52.9745C332.759 51.1313 328.612 50.2097 323.083 50.2097C320.855 50.2097 318.743 50.3633 316.747 50.6705C314.827 50.9777 313.099 51.5537 311.563 52.3985C310.103 53.2433 308.875 54.3953 307.876 55.8545C306.878 57.3137 306.225 59.1953 305.918 61.4993L296.011 60.1169C296.395 56.6609 297.431 53.7041 299.121 51.2465C300.811 48.7889 302.923 46.8305 305.457 45.3713C307.991 43.8353 310.795 42.7601 313.867 42.1457C316.939 41.4545 320.011 41.1089 323.083 41.1089C326.539 41.1089 329.918 41.4929 333.22 42.2609C336.599 43.0289 339.595 44.2961 342.206 46.0625C344.817 47.7521 346.891 50.0561 348.427 52.9745C350.039 55.8161 350.846 59.3873 350.846 63.6881V84.6545C350.846 86.1905 351.115 87.1889 351.652 87.6497C352.19 88.1105 353.073 88.3409 354.302 88.3409H356.951V99.0545H349.579C346.66 99.0545 344.318 98.1713 342.551 96.4049C340.862 94.6385 340.017 92.4881 340.017 89.9537V84.8849ZM305.342 82.4657C305.342 84.0017 305.726 85.3457 306.494 86.4977C307.262 87.5729 308.26 88.4945 309.489 89.2625C310.795 89.9537 312.292 90.4913 313.982 90.8753C315.748 91.1825 317.553 91.3361 319.396 91.3361C321.777 91.3361 324.196 91.0673 326.654 90.5297C329.111 89.9153 331.3 89.0705 333.22 87.9953C335.217 86.9201 336.83 85.6145 338.059 84.0785C339.364 82.4657 340.017 80.6609 340.017 78.6641V71.0609C338.404 71.9825 336.407 72.5969 334.027 72.9041C331.646 73.2113 329.15 73.4033 326.539 73.4801C324.004 73.5569 321.47 73.6337 318.935 73.7105C316.401 73.7873 314.135 74.0945 312.139 74.6321C310.142 75.1697 308.491 76.0529 307.185 77.2817C305.956 78.4337 305.342 80.1617 305.342 82.4657Z" fill="#393939"/>
<path d="M391.601 40.7633C394.903 40.7633 398.129 41.1857 401.277 42.0305C404.426 42.8753 407.306 44.1425 409.917 45.8321C412.529 47.5217 414.794 49.6337 416.714 52.1681C418.634 54.7025 419.978 57.6593 420.746 61.0385L410.378 62.6513C407.537 54.5105 401.277 50.3633 391.601 50.2097C388.836 50.2097 386.225 50.6321 383.767 51.4769C381.309 52.3217 379.159 53.6273 377.316 55.3937C375.549 57.0833 374.129 59.1953 373.053 61.7297C371.978 64.1873 371.441 67.0289 371.441 70.2545C371.441 73.4801 371.94 76.3601 372.938 78.8945C374.013 81.4289 375.434 83.5409 377.201 85.2305C379.044 86.9201 381.194 88.1873 383.652 89.0321C386.109 89.8769 388.759 90.2609 391.601 90.1841C396.362 90.1073 400.279 89.1089 403.351 87.1889C406.423 85.2689 408.727 82.2353 410.263 78.0881L420.746 79.5857C419.978 82.9649 418.634 85.9217 416.714 88.4561C414.794 90.9905 412.529 93.1025 409.917 94.7921C407.306 96.4049 404.426 97.6337 401.277 98.4785C398.129 99.3233 394.903 99.7457 391.601 99.7457C387.377 99.7457 383.345 99.1697 379.505 98.0177C375.741 96.7889 372.401 94.9457 369.482 92.4881C366.641 90.0305 364.375 86.9585 362.685 83.2721C360.996 79.5857 360.151 75.2465 360.151 70.2545C360.151 65.2625 360.996 60.9233 362.685 57.2369C364.375 53.5505 366.641 50.4785 369.482 48.0209C372.401 45.5633 375.741 43.7585 379.505 42.6065C383.345 41.3777 387.377 40.7633 391.601 40.7633Z" fill="#393939"/>
<path d="M424.584 18.4145H435.873V51.4769C435.873 52.7825 435.758 54.2033 435.528 55.7393C435.297 57.2753 434.99 58.6961 434.606 60.0017L434.837 60.1169C435.221 58.8113 435.643 57.4289 436.104 55.9697C436.565 54.4337 437.179 53.1281 437.947 52.0529C440.558 47.9825 443.861 45.0641 447.854 43.2977C451.925 41.4545 456.149 40.5329 460.526 40.5329C464.366 40.5329 467.669 41.3009 470.433 42.8369C473.275 44.3729 475.617 46.4465 477.461 49.0577C479.381 51.5921 480.801 54.5873 481.723 58.0433C482.645 61.4225 483.105 64.9937 483.105 68.7569V99.0545H471.816V68.7569C471.816 63.3809 470.549 59.0801 468.014 55.8545C465.557 52.5521 461.909 50.9009 457.07 50.9009C455.534 50.9009 453.576 51.2849 451.195 52.0529C448.814 52.7441 446.472 54.0881 444.168 56.0849C441.941 58.0049 439.982 60.6929 438.293 64.1489C436.68 67.6049 435.873 72.0593 435.873 77.5121V99.0545H424.584V18.4145Z" fill="#393939"/>
<defs>
<filter id="filter0_d_184_2601" x="35" y="15" width="62" height="62" filterUnits="userSpaceOnUse" color-interpolation-filters="sRGB">
<feFlood flood-opacity="0" result="BackgroundImageFix"/>
<feColorMatrix in="SourceAlpha" type="matrix" values="0 0 0 0 0 0 0 0 0 0 0 0 0 0 0 0 0 0 127 0" result="hardAlpha"/>
<feOffset dy="5"/>
<feGaussianBlur stdDeviation="3"/>
<feComposite in2="hardAlpha" operator="out"/>
<feColorMatrix type="matrix" values="0 0 0 0 0 0 0 0 0 0 0 0 0 0 0 0 0 0 0.09 0"/>
<feBlend mode="normal" in2="BackgroundImageFix" result="effect1_dropShadow_184_2601"/>
<feBlend mode="normal" in="SourceGraphic" in2="effect1_dropShadow_184_2601" result="shape"/>
</filter>
<filter id="filter1_d_184_2601" x="0" y="15" width="62" height="62" filterUnits="userSpaceOnUse" color-interpolation-filters="sRGB">
<feFlood flood-opacity="0" result="BackgroundImageFix"/>
<feColorMatrix in="SourceAlpha" type="matrix" values="0 0 0 0 0 0 0 0 0 0 0 0 0 0 0 0 0 0 127 0" result="hardAlpha"/>
<feOffset dy="5"/>
<feGaussianBlur stdDeviation="3"/>
<feComposite in2="hardAlpha" operator="out"/>
<feColorMatrix type="matrix" values="0 0 0 0 0 0 0 0 0 0 0 0 0 0 0 0 0 0 0.09 0"/>
<feBlend mode="normal" in2="BackgroundImageFix" result="effect1_dropShadow_184_2601"/>
<feBlend mode="normal" in="SourceGraphic" in2="effect1_dropShadow_184_2601" result="shape"/>
</filter>
<filter id="filter2_d_184_2601" x="35" y="42" width="62" height="62" filterUnits="userSpaceOnUse" color-interpolation-filters="sRGB">
<feFlood flood-opacity="0" result="BackgroundImageFix"/>
<feColorMatrix in="SourceAlpha" type="matrix" values="0 0 0 0 0 0 0 0 0 0 0 0 0 0 0 0 0 0 127 0" result="hardAlpha"/>
<feOffset dy="-3"/>
<feGaussianBlur stdDeviation="3"/>
<feComposite in2="hardAlpha" operator="out"/>
<feColorMatrix type="matrix" values="0 0 0 0 0 0 0 0 0 0 0 0 0 0 0 0 0 0 0.09 0"/>
<feBlend mode="normal" in2="BackgroundImageFix" result="effect1_dropShadow_184_2601"/>
<feBlend mode="normal" in="SourceGraphic" in2="effect1_dropShadow_184_2601" result="shape"/>
</filter>
</defs>
</svg>
