<svg width="425" height="425" viewBox="0 0 425 425" fill="none" xmlns="http://www.w3.org/2000/svg">
<g clip-path="url(#clip0_238_1499)">
<path d="M421.707 179.455C420.447 179.438 419.187 179.404 417.928 179.337C417.155 179.32 416.382 179.287 415.626 179.236C412.199 179.069 408.788 178.8 405.395 178.43C403.9 178.279 402.404 178.094 400.926 177.893H400.909C399.414 177.708 397.936 177.473 396.474 177.237C393.769 176.801 391.065 176.313 388.394 175.759C330.233 163.865 282.639 124.133 259.926 70.9117C251.056 50.1472 245.982 27.3332 245.545 3.29275L245.478 0H179.455L179.505 3.41035C180.312 61.7223 201.513 116.926 239.581 160.706C239.749 160.891 239.901 161.076 240.069 161.261C241.446 162.84 242.857 164.419 244.285 165.965C244.537 166.233 244.789 166.519 245.041 166.788C246.654 168.518 248.267 170.232 249.93 171.929C251.005 173.021 252.08 174.113 253.172 175.171C254.264 176.246 255.373 177.305 256.482 178.363C257.591 179.421 258.716 180.463 259.842 181.488C261.354 182.848 262.866 184.209 264.411 185.536C264.512 185.637 264.613 185.721 264.731 185.805C266.259 187.132 267.788 188.426 269.351 189.703C279.061 197.699 289.393 204.957 300.245 211.374C330.199 229.132 363.698 240.253 398.238 244.05C398.49 244.084 398.759 244.117 399.011 244.134C399.851 244.235 400.691 244.319 401.531 244.386C402.892 244.52 404.252 244.655 405.613 244.756C406.84 244.856 408.083 244.94 409.326 245.024C411.695 245.176 414.064 245.293 416.449 245.36C417.155 245.394 417.877 245.411 418.583 245.427C419.574 245.461 420.582 245.478 421.59 245.495L425 245.545V179.522L421.707 179.455Z" fill="#BDBDBD"/>
<path d="M425 179.455V245.478L421.707 245.545C324.689 247.292 247.309 324.672 245.545 421.707L245.478 425H179.455L179.505 421.59C180.396 357.431 205.948 297.019 251.476 251.475C297.02 205.948 357.432 180.396 421.59 179.505L425 179.455Z" fill="#101010"/>
<path d="M245.545 425H179.522L179.455 421.707C177.691 324.672 100.311 247.292 3.29275 245.545L0 245.478V179.455L3.41035 179.505C67.5686 180.396 127.98 205.948 173.525 251.475C219.052 297.019 244.621 357.431 245.495 421.59L245.545 425Z" fill="#BDBDBD"/>
<path d="M179.522 0L179.455 3.29275C177.691 100.311 100.311 177.691 3.29275 179.455L0 179.522V245.545L3.41035 245.495C67.5686 244.621 127.98 219.052 173.525 173.525C219.052 127.98 244.621 67.5686 245.495 3.41035L245.545 0L179.522 0ZM238.775 3.35995V3.30955L242.135 3.35995H238.775Z" fill="#101010"/>
<path d="M263.655 78.5892L262.95 80.0508C260.144 85.7963 255.188 89.8282 250.4 93.709C244.235 98.7153 237.884 103.89 235.364 113.079C233.936 118.841 227.922 121.496 222.093 124.066C220.715 124.671 219.304 125.293 217.96 125.965L215.171 127.359L213.575 124.671C191.887 87.9971 180.093 46.0817 179.505 3.41035L179.472 0H245.495L245.545 3.30955C246.015 29.0972 251.879 53.9272 262.966 77.1276L263.655 78.5892Z" fill="#BDBDBD"/>
</g>
<defs>
<clipPath id="clip0_238_1499">
<rect width="425" height="425" fill="white"/>
</clipPath>
</defs>
</svg>
