<svg width="458" height="458" viewBox="0 0 458 458" fill="none" xmlns="http://www.w3.org/2000/svg">
<g clip-path="url(#clip0_238_1843)">
<path d="M453.699 193.594C452.344 193.575 450.989 193.539 449.635 193.467C448.804 193.449 447.973 193.413 447.16 193.359C443.475 193.178 439.808 192.889 436.159 192.492C434.551 192.329 432.944 192.13 431.354 191.914H431.336C429.728 191.715 428.139 191.462 426.567 191.209C423.659 190.739 420.751 190.216 417.878 189.619C355.342 176.83 304.167 134.109 279.745 76.8834C270.207 54.5566 264.752 30.026 264.282 4.17673L264.21 0.63623H193.219L193.273 4.30318C194.14 67.0026 216.937 126.36 257.87 173.434C258.05 173.633 258.213 173.832 258.393 174.03C259.875 175.728 261.392 177.426 262.927 179.088C263.198 179.377 263.469 179.684 263.74 179.973C265.474 181.834 267.208 183.676 268.997 185.501C270.153 186.675 271.309 187.849 272.483 188.987C273.657 190.143 274.849 191.281 276.042 192.419C277.234 193.557 278.444 194.677 279.654 195.779C281.28 197.242 282.906 198.706 284.568 200.133C284.676 200.241 284.785 200.331 284.911 200.422C286.555 201.849 288.199 203.24 289.879 204.612C300.319 213.211 311.429 221.014 323.098 227.915C355.306 247.008 391.325 258.966 428.464 263.049C428.735 263.085 429.024 263.121 429.295 263.139C430.198 263.247 431.101 263.338 432.004 263.41C433.467 263.555 434.931 263.699 436.394 263.807C437.712 263.916 439.049 264.006 440.386 264.096C442.933 264.259 445.48 264.385 448.045 264.458C448.804 264.494 449.58 264.512 450.339 264.53C451.405 264.566 452.489 264.584 453.572 264.602L457.239 264.656V193.666L453.699 193.594Z" fill="#377BDC"/>
<path d="M457.239 193.593V264.583L453.698 264.656C349.38 266.534 266.178 349.736 264.282 454.072L264.209 457.613H193.219L193.273 453.946C194.23 384.96 221.705 320.003 270.658 271.032C319.629 222.079 384.586 194.604 453.572 193.647L457.239 193.593Z" fill="#1C3B7C"/>
<path d="M264.282 457.613H193.291L193.219 454.072C191.322 349.736 108.121 266.534 3.80222 264.656L0.261719 264.583V193.593L3.92867 193.647C72.9142 194.604 137.872 222.079 186.842 271.032C235.795 320.003 263.288 384.96 264.228 453.946L264.282 457.613Z" fill="#377BDC"/>
<path d="M193.291 0.63623L193.219 4.17673C191.322 108.495 108.121 191.697 3.80222 193.594L0.261719 193.666V264.656L3.92867 264.602C72.9142 263.663 137.872 236.17 186.842 187.217C235.795 138.246 263.288 73.2887 264.228 4.30318L264.282 0.63623L193.291 0.63623ZM257.002 4.24899V4.19479L260.615 4.24899H257.002Z" fill="#1C3B7C"/>
<path d="M283.755 85.1386L282.996 86.7102C279.98 92.888 274.651 97.2233 269.503 101.396C262.873 106.779 256.045 112.343 253.336 122.224C251.8 128.419 245.333 131.273 239.065 134.037C237.584 134.688 236.067 135.356 234.621 136.078L231.623 137.578L229.907 134.688C206.586 95.2543 193.906 50.1852 193.273 4.30318L193.237 0.63623H264.228L264.282 4.1948C264.788 31.9227 271.092 58.621 283.014 83.5671L283.755 85.1386Z" fill="#377BDC"/>
</g>
<defs>
<clipPath id="clip0_238_1843">
<rect width="456.978" height="456.978" fill="white" transform="translate(0.261719 0.63623)"/>
</clipPath>
</defs>
</svg>
