<svg width="2386" height="585" viewBox="0 0 2386 585" fill="none" xmlns="http://www.w3.org/2000/svg">
<g clip-path="url(#clip0_238_1519)">
<path d="M421.707 259.455C420.447 259.438 419.187 259.404 417.928 259.337C417.155 259.32 416.382 259.287 415.626 259.236C412.199 259.069 408.788 258.8 405.395 258.43C403.9 258.279 402.404 258.094 400.926 257.893H400.909C399.414 257.708 397.936 257.473 396.474 257.237C393.769 256.801 391.065 256.313 388.394 255.759C330.233 243.865 282.639 204.133 259.926 150.912C251.056 130.147 245.982 107.333 245.545 83.2928L245.478 80H179.455L179.505 83.4103C180.312 141.722 201.513 196.926 239.581 240.706C239.749 240.891 239.901 241.076 240.069 241.261C241.446 242.84 242.857 244.419 244.285 245.965C244.537 246.233 244.789 246.519 245.041 246.788C246.654 248.518 248.267 250.232 249.93 251.929C251.005 253.021 252.08 254.113 253.172 255.171C254.264 256.246 255.373 257.305 256.482 258.363C257.591 259.421 258.716 260.463 259.842 261.488C261.354 262.848 262.866 264.209 264.411 265.536C264.512 265.637 264.613 265.721 264.731 265.805C266.259 267.132 267.788 268.426 269.351 269.703C279.061 277.699 289.393 284.957 300.245 291.374C330.199 309.132 363.698 320.253 398.238 324.05C398.49 324.084 398.759 324.117 399.011 324.134C399.851 324.235 400.691 324.319 401.531 324.386C402.892 324.52 404.252 324.655 405.613 324.756C406.84 324.856 408.083 324.94 409.326 325.024C411.695 325.176 414.064 325.293 416.449 325.36C417.155 325.394 417.877 325.411 418.583 325.427C419.574 325.461 420.582 325.478 421.59 325.495L425 325.545V259.522L421.707 259.455Z" fill="#979797"/>
<path d="M425 259.455V325.478L421.707 325.545C324.689 327.292 247.309 404.672 245.545 501.707L245.478 505H179.455L179.505 501.59C180.396 437.432 205.948 377.02 251.476 331.476C297.02 285.948 357.432 260.396 421.59 259.505L425 259.455Z" fill="#FAFAFA"/>
<path d="M245.545 505H179.522L179.455 501.707C177.691 404.672 100.311 327.292 3.29275 325.545L0 325.478V259.455L3.41035 259.505C67.5686 260.396 127.98 285.948 173.525 331.476C219.052 377.02 244.621 437.432 245.495 501.59L245.545 505Z" fill="#979797"/>
<path d="M179.522 80L179.455 83.2928C177.691 180.311 100.311 257.691 3.29275 259.455L0 259.522V325.545L3.41035 325.495C67.5686 324.621 127.98 299.052 173.525 253.525C219.052 207.98 244.621 147.569 245.495 83.4103L245.545 80L179.522 80ZM238.775 83.3599V83.3096L242.135 83.3599H238.775Z" fill="#FAFAFA"/>
<path d="M263.655 158.589L262.95 160.051C260.144 165.796 255.188 169.828 250.4 173.709C244.235 178.715 237.884 183.89 235.364 193.079C233.936 198.841 227.922 201.496 222.093 204.066C220.715 204.671 219.304 205.293 217.96 205.965L215.171 207.359L213.575 204.671C191.887 167.997 180.093 126.082 179.505 83.4103L179.472 80H245.495L245.545 83.3095C246.015 109.097 251.879 133.927 262.966 157.128L263.655 158.589Z" fill="#979797"/>
</g>
<path d="M639.72 372.009C641.64 395.049 652.2 412.905 671.4 425.577C690.984 438.249 717.096 444.777 749.736 445.161C786.216 445.161 814.44 438.825 834.408 426.153C854.76 413.481 864.936 394.857 864.936 370.281C864.936 358.377 860.904 348.969 852.84 342.057C845.16 335.145 834.792 329.577 821.736 325.353C809.064 320.745 794.472 317.289 777.96 314.985C761.832 312.297 745.128 309.609 727.848 306.921C710.952 303.849 694.248 300.393 677.736 296.553C661.608 292.329 647.016 286.569 633.96 279.273C621.288 271.977 610.92 262.569 602.856 251.049C595.176 239.145 591.336 224.361 591.336 206.697C591.336 186.345 595.368 168.681 603.432 153.705C611.88 138.345 623.4 125.673 637.992 115.689C652.584 105.705 669.672 98.2166 689.256 93.2246C708.84 88.2326 729.768 85.9286 752.04 86.3126C772.776 86.6966 791.976 89.1926 809.64 93.8006C827.688 98.4086 843.432 105.321 856.872 114.537C870.696 123.369 881.832 134.505 890.28 147.945C898.728 161.385 903.72 177.129 905.256 195.177L851.112 202.665C849.192 182.697 840.552 167.145 825.192 156.009C809.832 144.873 785.448 139.305 752.04 139.305C719.016 139.305 693.288 145.257 674.856 157.161C656.808 168.681 647.784 185.193 647.784 206.697C647.784 217.449 651.624 225.897 659.304 232.041C667.368 237.801 677.736 242.601 690.408 246.441C703.464 249.897 718.056 252.777 734.184 255.081C750.696 257.385 767.4 259.881 784.296 262.569C801.576 265.257 818.28 268.713 834.408 272.937C850.92 277.161 865.512 283.305 878.184 291.369C891.24 299.049 901.608 309.033 909.288 321.321C917.352 333.609 921.384 349.353 921.384 368.553C921.384 382.377 918.888 396.969 913.896 412.329C909.288 427.305 900.456 441.321 887.4 454.377C874.728 467.049 857.256 477.609 834.984 486.057C813.096 494.121 784.872 498.153 750.312 498.153C718.44 498.153 692.136 494.697 671.4 487.785C650.664 480.873 633.96 471.849 621.288 460.713C609 449.193 600.168 436.329 594.792 422.121C589.416 407.913 586.152 393.513 585 378.921L639.72 372.009Z" fill="#FAFAFA"/>
<path d="M918.653 257.961V204.969H929.597C936.125 204.969 942.845 202.281 949.757 196.905C957.053 191.529 963.581 184.617 969.341 176.169C975.101 167.721 979.901 158.313 983.741 147.945C987.581 137.577 989.501 127.401 989.501 117.417L1046.52 116.841C1045.76 132.969 1041.92 148.329 1035 162.921C1028.09 177.129 1017.92 188.649 1004.48 197.481C999.485 200.553 993.341 202.857 986.045 204.393C979.133 205.545 972.797 206.697 967.037 207.849V209.001C972.797 207.849 979.133 206.889 986.045 206.121C993.341 205.353 999.869 204.969 1005.63 204.969H1107.58V257.961H1034.43V411.177C1034.43 423.849 1037.5 432.297 1043.64 436.521C1049.79 440.361 1057.28 442.281 1066.11 442.281H1121.4V495.273H1068.99C1050.17 495.273 1034.81 493.545 1022.91 490.089C1011 486.249 1001.79 480.489 995.261 472.809C988.733 465.129 984.125 455.337 981.437 443.433C979.133 431.145 977.981 416.745 977.981 400.233V257.961H918.653Z" fill="#FAFAFA"/>
<path d="M1269.87 498.729C1248.75 498.729 1228.59 495.849 1209.39 490.089C1190.19 483.945 1173.29 474.729 1158.7 462.441C1144.49 450.153 1133.16 434.793 1124.72 416.361C1116.27 397.929 1112.04 376.233 1112.04 351.273C1112.04 326.313 1116.27 304.617 1124.72 286.185C1133.16 267.753 1144.49 252.393 1158.7 240.105C1173.29 227.817 1190.19 218.793 1209.39 213.033C1228.59 206.889 1248.75 203.817 1269.87 203.817C1290.99 203.817 1310.76 206.889 1329.2 213.033C1348.01 219.177 1364.33 228.393 1378.16 240.681C1391.98 252.585 1402.92 267.753 1410.99 286.185C1419.05 304.617 1423.08 326.313 1423.08 351.273C1423.08 355.497 1423.08 358.377 1423.08 359.913C1423.08 361.065 1422.7 363.561 1421.93 367.401H1170.8C1175.02 396.201 1186.16 417.705 1204.2 431.913C1222.25 446.121 1244.52 453.033 1271.02 452.649C1293.29 452.265 1312.68 448.041 1329.2 439.977C1346.09 431.913 1358.57 417.129 1366.64 395.625L1418.48 402.537C1413.1 419.817 1405.42 434.601 1395.44 446.889C1385.84 459.177 1374.51 469.161 1361.45 476.841C1348.4 484.137 1334 489.705 1318.25 493.545C1302.89 497.001 1286.76 498.729 1269.87 498.729ZM1271.02 248.169C1258.35 248.169 1245.68 250.665 1233 255.657C1220.33 260.265 1209.2 267.561 1199.6 277.545C1190 287.145 1182.32 299.433 1176.56 314.409C1171.18 329.385 1169.26 347.049 1170.8 367.401C1173.1 359.721 1175.6 353.577 1178.28 348.969C1181.36 344.361 1184.81 340.905 1188.65 338.601C1192.88 336.297 1197.48 334.761 1202.48 333.993C1207.85 333.225 1214 332.841 1220.91 332.841H1369.52C1365.29 303.273 1354.35 281.961 1336.68 268.905C1319.4 255.465 1297.52 248.553 1271.02 248.169Z" fill="#FAFAFA"/>
<path d="M1670.09 424.425C1666.25 436.329 1660.29 446.697 1652.23 455.529C1644.17 464.361 1634.76 471.657 1624.01 477.417C1613.64 483.177 1602.31 487.593 1590.02 490.665C1577.73 493.353 1565.45 494.697 1553.16 494.697C1538.95 494.697 1525.13 492.969 1511.69 489.513C1498.25 486.057 1486.34 480.873 1475.97 473.961C1465.61 467.049 1457.16 458.601 1450.63 448.617C1444.49 438.249 1441.41 426.537 1441.41 413.481C1441.41 392.361 1446.98 376.425 1458.12 365.673C1469.64 354.537 1483.85 346.473 1500.74 341.481C1518.02 336.489 1536.45 333.801 1556.04 333.417C1576.01 332.649 1594.44 332.073 1611.33 331.689C1628.61 330.921 1642.82 329.385 1653.96 327.081C1665.09 324.777 1670.47 319.593 1670.09 311.529C1669.32 289.641 1661.83 274.089 1647.62 264.873C1633.8 255.657 1613.06 251.049 1585.41 251.049C1574.28 251.049 1563.72 251.817 1553.73 253.353C1544.13 254.889 1535.49 257.769 1527.81 261.993C1520.52 266.217 1514.37 271.977 1509.38 279.273C1504.39 286.569 1501.13 295.977 1499.59 307.497L1450.05 300.585C1451.97 283.305 1457.16 268.521 1465.61 256.233C1474.05 243.945 1484.61 234.153 1497.29 226.857C1509.96 219.177 1523.97 213.801 1539.33 210.729C1554.69 207.273 1570.05 205.545 1585.41 205.545C1602.69 205.545 1619.59 207.465 1636.1 211.305C1653 215.145 1667.97 221.481 1681.03 230.313C1694.09 238.761 1704.45 250.281 1712.13 264.873C1720.2 279.081 1724.23 296.937 1724.23 318.441V423.273C1724.23 430.953 1725.57 435.945 1728.26 438.249C1730.95 440.553 1735.37 441.705 1741.51 441.705H1754.76V495.273H1717.89C1703.3 495.273 1691.59 490.857 1682.76 482.025C1674.31 473.193 1670.09 462.441 1670.09 449.769V424.425ZM1496.71 412.329C1496.71 420.009 1498.63 426.729 1502.47 432.489C1506.31 437.865 1511.3 442.473 1517.45 446.313C1523.97 449.769 1531.46 452.457 1539.91 454.377C1548.74 455.913 1557.77 456.681 1566.98 456.681C1578.89 456.681 1590.98 455.337 1603.27 452.649C1615.56 449.577 1626.5 445.353 1636.1 439.977C1646.09 434.601 1654.15 428.073 1660.29 420.393C1666.82 412.329 1670.09 403.305 1670.09 393.321V355.305C1662.02 359.913 1652.04 362.985 1640.13 364.521C1628.23 366.057 1615.75 367.017 1602.69 367.401C1590.02 367.785 1577.35 368.169 1564.68 368.553C1552.01 368.937 1540.68 370.473 1530.69 373.161C1520.71 375.849 1512.45 380.265 1505.93 386.409C1499.78 392.169 1496.71 400.809 1496.71 412.329Z" fill="#FAFAFA"/>
<path d="M1928 203.817C1944.51 203.817 1960.64 205.929 1976.39 210.153C1992.13 214.377 2006.53 220.713 2019.59 229.161C2032.64 237.609 2043.97 248.169 2053.57 260.841C2063.17 273.513 2069.89 288.297 2073.73 305.193L2021.89 313.257C2007.68 272.553 1976.39 251.817 1928 251.049C1914.18 251.049 1901.12 253.161 1888.83 257.385C1876.55 261.609 1865.79 268.137 1856.58 276.969C1847.75 285.417 1840.64 295.977 1835.27 308.649C1829.89 320.937 1827.2 335.145 1827.2 351.273C1827.2 367.401 1829.7 381.801 1834.69 394.473C1840.07 407.145 1847.17 417.705 1856 426.153C1865.22 434.601 1875.97 440.937 1888.26 445.161C1900.55 449.385 1913.79 451.305 1928 450.921C1951.81 450.537 1971.39 445.545 1986.75 435.945C2002.11 426.345 2013.63 411.177 2021.31 390.441L2073.73 397.929C2069.89 414.825 2063.17 429.609 2053.57 442.281C2043.97 454.953 2032.64 465.513 2019.59 473.961C2006.53 482.025 1992.13 488.169 1976.39 492.393C1960.64 496.617 1944.51 498.729 1928 498.729C1906.88 498.729 1886.72 495.849 1867.52 490.089C1848.71 483.945 1832 474.729 1817.41 462.441C1803.2 450.153 1791.87 434.793 1783.43 416.361C1774.98 397.929 1770.75 376.233 1770.75 351.273C1770.75 326.313 1774.98 304.617 1783.43 286.185C1791.87 267.753 1803.2 252.393 1817.41 240.105C1832 227.817 1848.71 218.793 1867.52 213.033C1886.72 206.889 1906.88 203.817 1928 203.817Z" fill="#FAFAFA"/>
<path d="M2092.92 92.0726H2149.37V257.385C2149.37 263.913 2148.79 271.017 2147.64 278.697C2146.49 286.377 2144.95 293.481 2143.03 300.009L2144.18 300.585C2146.1 294.057 2148.21 287.145 2150.52 279.849C2152.82 272.169 2155.89 265.641 2159.73 260.265C2172.79 239.913 2189.3 225.321 2209.27 216.489C2229.62 207.273 2250.74 202.665 2272.63 202.665C2291.83 202.665 2308.34 206.505 2322.17 214.185C2336.37 221.865 2348.09 232.233 2357.3 245.289C2366.9 257.961 2374.01 272.937 2378.61 290.217C2383.22 307.113 2385.53 324.969 2385.53 343.785V495.273H2329.08V343.785C2329.08 316.905 2322.74 295.401 2310.07 279.273C2297.78 262.761 2279.54 254.505 2255.35 254.505C2247.67 254.505 2237.88 256.425 2225.97 260.265C2214.07 263.721 2202.36 270.441 2190.84 280.425C2179.7 290.025 2169.91 303.465 2161.46 320.745C2153.4 338.025 2149.37 360.297 2149.37 387.561V495.273H2092.92V92.0726Z" fill="#FAFAFA"/>
<defs>
<clipPath id="clip0_238_1519">
<rect width="425" height="425" fill="white" transform="translate(0 80)"/>
</clipPath>
</defs>
</svg>
